<svg width="73" height="52" viewBox="0 0 73 52" fill="none" xmlns="http://www.w3.org/2000/svg">
<path d="M0.836 4.4H3.944L5.96 19.604H6.016L8.032 4.4H10.86L7.892 24H3.804L0.836 4.4ZM12.8994 4.4H21.2994V7.2H15.9794V12.38H20.2074V15.18H15.9794V21.2H21.2994V24H12.8994V4.4ZM23.6313 4.4H26.7113V12.38H30.0153V4.4H33.0953V24H30.0153V15.18H26.7113V24H23.6313V4.4ZM35.9491 4.4H39.0291V24H35.9491V4.4ZM46.2358 24.28C44.7611 24.28 43.6318 23.86 42.8478 23.02C42.0825 22.18 41.6998 20.9947 41.6998 19.464V8.936C41.6998 7.40533 42.0825 6.22 42.8478 5.38C43.6318 4.54 44.7611 4.12 46.2358 4.12C47.7105 4.12 48.8305 4.54 49.5958 5.38C50.3798 6.22 50.7718 7.40533 50.7718 8.936V11.008H47.8598V8.74C47.8598 7.52667 47.3465 6.92 46.3198 6.92C45.2931 6.92 44.7798 7.52667 44.7798 8.74V19.688C44.7798 20.8827 45.2931 21.48 46.3198 21.48C47.3465 21.48 47.8598 20.8827 47.8598 19.688V16.692H50.7718V19.464C50.7718 20.9947 50.3798 22.18 49.5958 23.02C48.8305 23.86 47.7105 24.28 46.2358 24.28ZM53.1746 4.4H56.2546V21.2H61.3226V24H53.1746V4.4ZM63.3596 4.4H71.7596V7.2H66.4396V12.38H70.6676V15.18H66.4396V21.2H71.7596V24H63.3596V4.4Z" fill="#CEE8FD"/>
<path d="M3.312 40.18C2.352 40.18 1.626 39.91 1.134 39.37C0.642 38.818 0.396 38.032 0.396 37.012V36.292H2.268V37.156C2.268 37.972 2.61 38.38 3.294 38.38C3.63 38.38 3.882 38.284 4.05 38.092C4.23 37.888 4.32 37.564 4.32 37.12C4.32 36.592 4.2 36.13 3.96 35.734C3.72 35.326 3.276 34.84 2.628 34.276C1.812 33.556 1.242 32.908 0.918 32.332C0.594 31.744 0.432 31.084 0.432 30.352C0.432 29.356 0.684 28.588 1.188 28.048C1.692 27.496 2.424 27.22 3.384 27.22C4.332 27.22 5.046 27.496 5.526 28.048C6.018 28.588 6.264 29.368 6.264 30.388V30.91H4.392V30.262C4.392 29.83 4.308 29.518 4.14 29.326C3.972 29.122 3.726 29.02 3.402 29.02C2.742 29.02 2.412 29.422 2.412 30.226C2.412 30.682 2.532 31.108 2.772 31.504C3.024 31.9 3.474 32.38 4.122 32.944C4.95 33.664 5.52 34.318 5.832 34.906C6.144 35.494 6.3 36.184 6.3 36.976C6.3 38.008 6.042 38.8 5.526 39.352C5.022 39.904 4.284 40.18 3.312 40.18ZM7.07527 27.4H12.4753V29.2H9.05527V32.53H11.7733V34.33H9.05527V38.2H12.4753V40H7.07527V27.4ZM13.2543 27.4H16.1883C17.2083 27.4 17.9523 27.64 18.4203 28.12C18.8883 28.588 19.1223 29.314 19.1223 30.298V31.072C19.1223 32.38 18.6903 33.208 17.8263 33.556V33.592C18.3063 33.736 18.6423 34.03 18.8343 34.474C19.0383 34.918 19.1403 35.512 19.1403 36.256V38.47C19.1403 38.83 19.1523 39.124 19.1763 39.352C19.2003 39.568 19.2603 39.784 19.3563 40H17.3403C17.2683 39.796 17.2203 39.604 17.1963 39.424C17.1723 39.244 17.1603 38.92 17.1603 38.452V36.148C17.1603 35.572 17.0643 35.17 16.8723 34.942C16.6923 34.714 16.3743 34.6 15.9183 34.6H15.2343V40H13.2543V27.4ZM15.9543 32.8C16.3503 32.8 16.6443 32.698 16.8363 32.494C17.0403 32.29 17.1423 31.948 17.1423 31.468V30.496C17.1423 30.04 17.0583 29.71 16.8903 29.506C16.7343 29.302 16.4823 29.2 16.1343 29.2H15.2343V32.8H15.9543ZM19.5618 27.4H21.5598L22.8558 37.174H22.8918L24.1878 27.4H26.0058L24.0978 40H21.4698L19.5618 27.4ZM26.5968 27.4H28.5768V40H26.5968V27.4ZM32.4897 40.18C31.5417 40.18 30.8157 39.91 30.3117 39.37C29.8197 38.83 29.5737 38.068 29.5737 37.084V30.316C29.5737 29.332 29.8197 28.57 30.3117 28.03C30.8157 27.49 31.5417 27.22 32.4897 27.22C33.4377 27.22 34.1577 27.49 34.6497 28.03C35.1537 28.57 35.4057 29.332 35.4057 30.316V31.648H33.5337V30.19C33.5337 29.41 33.2037 29.02 32.5437 29.02C31.8837 29.02 31.5537 29.41 31.5537 30.19V37.228C31.5537 37.996 31.8837 38.38 32.5437 38.38C33.2037 38.38 33.5337 37.996 33.5337 37.228V35.302H35.4057V37.084C35.4057 38.068 35.1537 38.83 34.6497 39.37C34.1577 39.91 33.4377 40.18 32.4897 40.18ZM36.2303 27.4H41.6303V29.2H38.2103V32.53H40.9283V34.33H38.2103V38.2H41.6303V40H36.2303V27.4ZM44.9322 27.4H47.9202C48.9402 27.4 49.6842 27.64 50.1522 28.12C50.6202 28.588 50.8542 29.314 50.8542 30.298V30.802C50.8542 31.45 50.7462 31.978 50.5302 32.386C50.3262 32.794 50.0082 33.088 49.5762 33.268V33.304C50.5602 33.64 51.0522 34.516 51.0522 35.932V37.012C51.0522 37.984 50.7942 38.728 50.2782 39.244C49.7742 39.748 49.0302 40 48.0462 40H44.9322V27.4ZM47.6862 32.53C48.0822 32.53 48.3762 32.428 48.5682 32.224C48.7722 32.02 48.8742 31.678 48.8742 31.198V30.496C48.8742 30.04 48.7902 29.71 48.6222 29.506C48.4662 29.302 48.2142 29.2 47.8662 29.2H46.9122V32.53H47.6862ZM48.0462 38.2C48.3942 38.2 48.6522 38.11 48.8202 37.93C48.9882 37.738 49.0722 37.414 49.0722 36.958V35.86C49.0722 35.284 48.9702 34.888 48.7662 34.672C48.5742 34.444 48.2502 34.33 47.7942 34.33H46.9122V38.2H48.0462ZM54.7116 40.18C53.7396 40.18 52.9956 39.904 52.4796 39.352C51.9636 38.8 51.7056 38.02 51.7056 37.012V30.388C51.7056 29.38 51.9636 28.6 52.4796 28.048C52.9956 27.496 53.7396 27.22 54.7116 27.22C55.6836 27.22 56.4276 27.496 56.9436 28.048C57.4596 28.6 57.7176 29.38 57.7176 30.388V37.012C57.7176 38.02 57.4596 38.8 56.9436 39.352C56.4276 39.904 55.6836 40.18 54.7116 40.18ZM54.7116 38.38C55.3956 38.38 55.7376 37.966 55.7376 37.138V30.262C55.7376 29.434 55.3956 29.02 54.7116 29.02C54.0276 29.02 53.6856 29.434 53.6856 30.262V37.138C53.6856 37.966 54.0276 38.38 54.7116 38.38ZM61.5586 40.18C60.5866 40.18 59.8426 39.904 59.3266 39.352C58.8106 38.8 58.5526 38.02 58.5526 37.012V30.388C58.5526 29.38 58.8106 28.6 59.3266 28.048C59.8426 27.496 60.5866 27.22 61.5586 27.22C62.5306 27.22 63.2746 27.496 63.7906 28.048C64.3066 28.6 64.5646 29.38 64.5646 30.388V37.012C64.5646 38.02 64.3066 38.8 63.7906 39.352C63.2746 39.904 62.5306 40.18 61.5586 40.18ZM61.5586 38.38C62.2426 38.38 62.5846 37.966 62.5846 37.138V30.262C62.5846 29.434 62.2426 29.02 61.5586 29.02C60.8746 29.02 60.5326 29.434 60.5326 30.262V37.138C60.5326 37.966 60.8746 38.38 61.5586 38.38ZM65.5436 27.4H67.5236V32.71L70.0436 27.4H72.0236L69.6656 32.026L72.0596 40H69.9896L68.3156 34.384L67.5236 35.986V40H65.5436V27.4Z" fill="#CEE8FD"/>
</svg>
